<?xml version="1.0" encoding="utf-8"?>
<!-- Generator: Adobe Illustrator 16.0.0, SVG Export Plug-In . SVG Version: 6.00 Build 0)  -->
<!DOCTYPE svg PUBLIC "-//W3C//DTD SVG 1.1//EN" "http://www.w3.org/Graphics/SVG/1.1/DTD/svg11.dtd">
<svg version="1.1" id="Layer_1" xmlns="http://www.w3.org/2000/svg" xmlns:xlink="http://www.w3.org/1999/xlink" x="0px" y="0px"
	 width="388.994px" height="500px" viewBox="0 0 388.994 500" enable-background="new 0 0 388.994 500" xml:space="preserve">
<g>
	<defs>
		<rect id="SVGID_1_" width="388.994" height="500"/>
	</defs>
	<clipPath id="SVGID_2_">
		<use xlink:href="#SVGID_1_"  overflow="visible"/>
	</clipPath>
	<path clip-path="url(#SVGID_2_)" fill="#FFFFFF" d="M68.003,328.53c0.109,0.303,2.7,7.466,4.201,11.016
		c8.239,19.481,20.037,36.98,35.069,52.011c15.02,15.021,32.521,26.817,52.019,35.064c20.183,8.538,41.618,12.867,63.708,12.867
		c22.088,0,43.523-4.33,63.71-12.869c19.49-8.243,36.992-20.042,52.02-35.069c15.024-15.023,26.824-32.525,35.068-52.018
		c8.538-20.187,12.867-41.621,12.867-63.71c0-22.091-4.329-43.526-12.867-63.71c-8.243-19.49-20.042-36.992-35.068-52.019
		c-15.022-15.023-32.524-26.823-52.02-35.069c-20.185-8.538-41.619-12.867-63.71-12.867c-22.351,0-44.686,4.449-64.589,12.867
		c-15.908,6.73-42.836,24.056-58.598,40.312l-0.093,0.095V30.737l226.26-0.002c8.232-0.09,8.232-11.588,8.232-15.367
		c0-3.777,0-15.272-8.259-15.366L81.309,0c-6.661,0-10.783,5.54-10.783,10.673v189.589c0,6.116,7.619,10.533,14.698,12.047
		c13.825,2.953,17.019-1.466,20.404-6.142l0.449-0.62c5.169-7.679,21.323-23.936,21.484-24.098
		c25.209-25.208,58.915-39.09,94.907-39.09c35.82,0,69.431,13.882,94.639,39.09c25.294,25.294,39.224,58.81,39.224,94.373
		c0,35.691-13.858,69.206-39.022,94.371c-24.845,24.843-59.549,39.091-95.217,39.091c-24.159,0-47.479-6.438-67.457-18.619
		l0.086-115.278c0-15.371,6.67-32.08,17.843-44.698c12.773-14.425,30.377-22.369,49.57-22.369c18.587,0,35.946,7.056,48.882,19.869
		c12.841,12.722,19.914,29.671,19.914,47.726c0,38.523-30.292,68.699-68.963,68.699c-7.454,0-21.007-3.294-21.563-3.43
		c-7.809-2.325-11.13,8.515-12.223,12.088c-4.203,13.74,2.113,16.465,3.421,16.872c12.444,3.861,20.604,4.594,31.309,4.594
		c54.59,0,99.003-44.436,99.003-99.051c0-54.178-44.386-98.256-98.941-98.256c-26.718,0-51.816,10.213-70.672,28.757
		c-17.958,17.661-28.257,41.209-28.257,64.601l-0.01,0.581c-0.088,2.917-0.145,72.024-0.161,94.703l-0.102-0.113
		c-10.262-11.362-20.403-28.754-27.128-46.522c-2.636-6.965-8.589-5.731-16.714-3.229c-3.548,1.093-14.346,4.419-11.958,12.226
		L68.003,328.53z M184.294,301.445c0.036,3.313,3.068,6.219,4.879,7.955l0.569,0.549c3.106,3.055,6.065,4.604,8.792,4.604
		c2.26,0,3.652-1.068,4.146-1.527c1.367-1.271,16.845-16.953,18.32-18.449l17.262,17.205c1.597,1.8,3.334,2.702,5.358,2.758
		c2.756,0,5.759-1.639,8.927-4.871c7.447-7.604,3.722-11.706,1.92-13.688l-17.489-17.494l18.237-18.367
		c4-4.328,0.47-8.927-3.054-12.45c-5.116-5.116-10.051-6.436-13.214-3.521l-18.135,18.167l-18.338-18.344
		c-0.973-0.931-2.198-1.423-3.545-1.423c-2.444,0-5.336,1.652-8.595,4.912c-5.64,5.639-6.85,9.537-3.914,12.647l18.343,18.288
		l-18.235,18.268C185.028,298.16,184.276,299.77,184.294,301.445 M224.262,53.571c-29.317,0-60.501,5.918-83.414,15.829
		c-2.45,0.959-3.914,2.926-4.235,5.69c-0.301,2.607,0.403,6.047,2.155,10.523c1.42,3.631,5.195,13.276,12.501,10.489
		c23.449-8.945,49.372-13.871,72.992-13.871c26.764,0,52.721,5.239,77.15,15.571c19.412,8.212,37.728,20.073,57.642,37.329
		c1.45,1.259,2.991,1.897,4.578,1.897c3.883,0,7.606-3.814,10.792-7.388c5.317-5.965,8.969-10.923,3.73-15.885
		c-19.016-18.014-39.854-31.471-65.578-42.349C284.6,59.572,254.887,53.571,224.262,53.571 M382.233,415.59L382.233,415.59
		c-3.527-3.518-6.524-5.595-9.16-6.352c-2.673-0.768-5.059-0.195-6.903,1.654l-1.735,1.731
		c-18.17,18.172-39.329,32.439-62.89,42.404c-24.381,10.312-50.288,15.541-77.001,15.541c-26.714,0-52.62-5.229-77-15.541
		c-23.558-9.964-44.716-24.23-62.887-42.403c-18.931-18.931-33.197-40.088-42.401-62.884c-8.973-22.229-11.904-38.945-12.867-44.438
		c-0.09-0.515-0.162-0.922-0.218-1.216c-1.235-6.469-7.189-6.921-15.745-5.611c-3.559,0.544-14.388,2.2-13.356,9.991l0.024,0.179
		c2.867,18.034,7.932,35.719,15.054,52.559c11.448,27.066,27.833,51.368,48.698,72.232c20.866,20.866,45.17,37.251,72.234,48.696
		C164.1,493.989,193.864,500,224.544,500c30.664,0,60.429-6.014,88.466-17.876c27.055-11.442,51.358-27.829,72.233-48.706
		c0.048-0.048,1.189-1.179,1.813-1.858C389.354,429.059,391.353,424.682,382.233,415.59"/>
</g>
</svg>
